<svg width="328" height="122" xmlns="http://www.w3.org/2000/svg" preserveAspectRatio="none">

 <!---->
 <g>
  <title>background</title>
  <rect fill="none" id="canvas_background" height="124" width="330" y="-1" x="-1"/>
 </g>
 <g>
  <title>Layer 1</title>
  <g transform="translate(41.34219741821289,111.92985534667969) scale(0.5081825852394104) " id="shape_EAftEWgd67">
   <svg y="-147.584747" x="-23.61356" id="svg_3" preserveAspectRatio="none" viewBox="0 0 675.765625 232.681640625" height="232.681641" width="675.765625" xmlns:xlink="http://www.w3.org/1999/xlink">
    <rect id="svg_4" height="232.681641" width="675.765625" fill="rgba(0,0,0,0)"/>
    <rect id="svg_5" opacity="0"/>
    <g id="svg_6">
     <path id="svg_7" d="m120.071406,152.622031l4.65,0q15.72,-0.36 17.87,-15.73l0,0l1.79,13.94l23.05,0l-0.36,-87.57l-25.38,0l0.36,68.81l-17.33,0q-2.33,-0.36 -2.5,-2.51l0,0l0,-66.3l-25.38,0l0,67.02q0,17.15 12.33,20.91l0,0q4.65,1.43 10.9,1.43l0,0z" fill="rgb(36, 98, 198)"/>
     <path id="svg_8" d="m241.526211,150.832031l0.18,-19.66l-30.38,0q-2.15,0 -1.97,-2.14l0,0q0.36,-0.72 0.71,-1.43l0,0l33.42,-44.68q-0.35,-19.48 -18.94,-19.66l0,0l-42.53,0l0,19.66l28.77,0q2.32,0 2.14,2.14l0,0q-0.18,0.72 -0.53,1.26l0,0l-34.32,46.64q0.36,17.69 16.98,17.87l0,0l46.47,0z" fill="rgb(36, 98, 198)"/>
     <path id="svg_9" d="m255.750234,150.832031l25.37,0l0,-87.57l-25.37,0l0,87.57zm0,-98.65l25.37,0l0,-21.44l-25.37,0l0,21.44z" fill="rgb(36, 98, 198)"/>
     <path id="svg_10" d="m368.802813,150.832031l0,-23.05l-38.6,0l0,-90.43l-26.45,0l0,113.48l65.05,0z" fill="rgb(36, 98, 198)"/>
     <path id="svg_11" d="m405.903359,82.922031l15.01,0q2.32,0.36 2.5,2.5l0,0l0,43.25q-0.36,2.32 -2.5,2.5l0,0l-15.01,0q-2.33,-0.36 -2.51,-2.5l0,0l0,-43.25q0.36,-2.32 2.51,-2.5l0,0zm-28.06,5.36l0,37.53q0,19.84 14.83,24.66l0,0q6.44,2.15 15.55,2.15l0,0l10.36,0q23.06,0 28.42,-13.94l0,0q1.97,-5.36 1.97,-12.87l0,0l0,-37.53q0,-19.84 -14.84,-24.66l0,0q-6.25,-2.15 -15.55,-2.15l0,0l-10.36,0q-23.05,0 -28.42,13.94l0,0q-1.96,5.37 -1.96,12.87l0,0z" fill="rgb(36, 98, 198)"/>
     <path id="svg_12" d="m488.387187,152.622031l9.65,0q18.41,0 22.16,-12.69l0,0q0.36,-1.97 0.72,-3.93l0,0q1.97,14.12 16.26,16.26l0,0q3.04,0.36 6.61,0.36l0,0l10.01,0q17.7,0 21.81,-11.62l0,0q1.43,-4.47 1.43,-10.72l0,0l-0.36,-67.02l-25.38,0l0.36,66.3q-0.36,2.33 -2.5,2.51l0,0l-13.41,0q-2.32,-0.36 -2.5,-2.51l0,0l0,-66.3l-24.66,0l0,66.3q-0.36,2.33 -2.5,2.51l0,0l-13.05,0q-2.32,-0.36 -2.5,-2.51l0,0l0,-66.3l-25.38,0l0,67.02q0,17.15 12.33,20.91l0,0q4.65,1.43 10.9,1.43l0,0z" fill="rgb(36, 98, 198)"/>
    </g>
   </svg>
   <!---->
  </g>
  <g transform="translate(15.245477676391602,62.623470306396484) scale(0.5081825852394104) " id="shape_LwRH4Y7wtE">
   <svg y="-155.455933" x="-29.516951" id="svg_13" preserveAspectRatio="none" viewBox="0 0 178.706 252.161" height="343.878486" width="243.706" xmlns:xlink="http://www.w3.org/1999/xlink">
    <rect id="svg_14" height="252.161" width="178.706" fill="rgba(0,0,0,0)"/>
    <rect id="svg_15" opacity="0"/>
    <g id="svg_16">
     <path id="svg_17" d="m169.29,35.579005l-0.45,20.55l-72.7,-2.43l-5.31,137.24l-20.99,-0.66l5.74,-137.24l-71.16,-2.43l0.88,-20.99l163.99,5.96z" fill="#2462c6"/>
    </g>
   </svg>
   <!---->
  </g>
 </g>
</svg>